%TF.GenerationSoftware,KiCad,Pcbnew,9.0.4*%
%TF.CreationDate,2025-10-03T00:17:37+05:30*%
%TF.ProjectId,Project 3,50726f6a-6563-4742-9033-2e6b69636164,rev?*%
%TF.SameCoordinates,Original*%
%TF.FileFunction,Legend,Top*%
%TF.FilePolarity,Positive*%
%FSLAX46Y46*%
G04 Gerber Fmt 4.6, Leading zero omitted, Abs format (unit mm)*
G04 Created by KiCad (PCBNEW 9.0.4) date 2025-10-03 00:17:37*
%MOMM*%
%LPD*%
G01*
G04 APERTURE LIST*
%ADD10C,0.150000*%
%ADD11C,0.120000*%
%ADD12C,0.100000*%
G04 APERTURE END LIST*
D10*
X120830895Y-98119048D02*
X120830895Y-98595238D01*
X120545180Y-98023810D02*
X121545180Y-98357143D01*
X121545180Y-98357143D02*
X120545180Y-98690476D01*
X120640419Y-99595238D02*
X120592800Y-99547619D01*
X120592800Y-99547619D02*
X120545180Y-99404762D01*
X120545180Y-99404762D02*
X120545180Y-99309524D01*
X120545180Y-99309524D02*
X120592800Y-99166667D01*
X120592800Y-99166667D02*
X120688038Y-99071429D01*
X120688038Y-99071429D02*
X120783276Y-99023810D01*
X120783276Y-99023810D02*
X120973752Y-98976191D01*
X120973752Y-98976191D02*
X121116609Y-98976191D01*
X121116609Y-98976191D02*
X121307085Y-99023810D01*
X121307085Y-99023810D02*
X121402323Y-99071429D01*
X121402323Y-99071429D02*
X121497561Y-99166667D01*
X121497561Y-99166667D02*
X121545180Y-99309524D01*
X121545180Y-99309524D02*
X121545180Y-99404762D01*
X121545180Y-99404762D02*
X121497561Y-99547619D01*
X121497561Y-99547619D02*
X121449942Y-99595238D01*
X120545180Y-100785715D02*
X121545180Y-100785715D01*
X120545180Y-101261905D02*
X121545180Y-101261905D01*
X121545180Y-101261905D02*
X120545180Y-101833333D01*
X120545180Y-101833333D02*
X121545180Y-101833333D01*
X175261905Y-94454819D02*
X175261905Y-93454819D01*
X175261905Y-93454819D02*
X175500000Y-93454819D01*
X175500000Y-93454819D02*
X175642857Y-93502438D01*
X175642857Y-93502438D02*
X175738095Y-93597676D01*
X175738095Y-93597676D02*
X175785714Y-93692914D01*
X175785714Y-93692914D02*
X175833333Y-93883390D01*
X175833333Y-93883390D02*
X175833333Y-94026247D01*
X175833333Y-94026247D02*
X175785714Y-94216723D01*
X175785714Y-94216723D02*
X175738095Y-94311961D01*
X175738095Y-94311961D02*
X175642857Y-94407200D01*
X175642857Y-94407200D02*
X175500000Y-94454819D01*
X175500000Y-94454819D02*
X175261905Y-94454819D01*
X176214286Y-93550057D02*
X176261905Y-93502438D01*
X176261905Y-93502438D02*
X176357143Y-93454819D01*
X176357143Y-93454819D02*
X176595238Y-93454819D01*
X176595238Y-93454819D02*
X176690476Y-93502438D01*
X176690476Y-93502438D02*
X176738095Y-93550057D01*
X176738095Y-93550057D02*
X176785714Y-93645295D01*
X176785714Y-93645295D02*
X176785714Y-93740533D01*
X176785714Y-93740533D02*
X176738095Y-93883390D01*
X176738095Y-93883390D02*
X176166667Y-94454819D01*
X176166667Y-94454819D02*
X176785714Y-94454819D01*
X178666666Y-95799819D02*
X178666666Y-96514104D01*
X178666666Y-96514104D02*
X178619047Y-96656961D01*
X178619047Y-96656961D02*
X178523809Y-96752200D01*
X178523809Y-96752200D02*
X178380952Y-96799819D01*
X178380952Y-96799819D02*
X178285714Y-96799819D01*
X179095238Y-95895057D02*
X179142857Y-95847438D01*
X179142857Y-95847438D02*
X179238095Y-95799819D01*
X179238095Y-95799819D02*
X179476190Y-95799819D01*
X179476190Y-95799819D02*
X179571428Y-95847438D01*
X179571428Y-95847438D02*
X179619047Y-95895057D01*
X179619047Y-95895057D02*
X179666666Y-95990295D01*
X179666666Y-95990295D02*
X179666666Y-96085533D01*
X179666666Y-96085533D02*
X179619047Y-96228390D01*
X179619047Y-96228390D02*
X179047619Y-96799819D01*
X179047619Y-96799819D02*
X179666666Y-96799819D01*
X180954819Y-101264999D02*
X180954819Y-101074523D01*
X180954819Y-101074523D02*
X181002438Y-100979285D01*
X181002438Y-100979285D02*
X181097676Y-100884047D01*
X181097676Y-100884047D02*
X181288152Y-100836428D01*
X181288152Y-100836428D02*
X181621485Y-100836428D01*
X181621485Y-100836428D02*
X181811961Y-100884047D01*
X181811961Y-100884047D02*
X181907200Y-100979285D01*
X181907200Y-100979285D02*
X181954819Y-101074523D01*
X181954819Y-101074523D02*
X181954819Y-101264999D01*
X181954819Y-101264999D02*
X181907200Y-101360237D01*
X181907200Y-101360237D02*
X181811961Y-101455475D01*
X181811961Y-101455475D02*
X181621485Y-101503094D01*
X181621485Y-101503094D02*
X181288152Y-101503094D01*
X181288152Y-101503094D02*
X181097676Y-101455475D01*
X181097676Y-101455475D02*
X181002438Y-101360237D01*
X181002438Y-101360237D02*
X180954819Y-101264999D01*
X180954819Y-100407856D02*
X181764342Y-100407856D01*
X181764342Y-100407856D02*
X181859580Y-100360237D01*
X181859580Y-100360237D02*
X181907200Y-100312618D01*
X181907200Y-100312618D02*
X181954819Y-100217380D01*
X181954819Y-100217380D02*
X181954819Y-100026904D01*
X181954819Y-100026904D02*
X181907200Y-99931666D01*
X181907200Y-99931666D02*
X181859580Y-99884047D01*
X181859580Y-99884047D02*
X181764342Y-99836428D01*
X181764342Y-99836428D02*
X180954819Y-99836428D01*
X180954819Y-99503094D02*
X180954819Y-98931666D01*
X181954819Y-99217380D02*
X180954819Y-99217380D01*
X162333333Y-109359580D02*
X162285714Y-109407200D01*
X162285714Y-109407200D02*
X162142857Y-109454819D01*
X162142857Y-109454819D02*
X162047619Y-109454819D01*
X162047619Y-109454819D02*
X161904762Y-109407200D01*
X161904762Y-109407200D02*
X161809524Y-109311961D01*
X161809524Y-109311961D02*
X161761905Y-109216723D01*
X161761905Y-109216723D02*
X161714286Y-109026247D01*
X161714286Y-109026247D02*
X161714286Y-108883390D01*
X161714286Y-108883390D02*
X161761905Y-108692914D01*
X161761905Y-108692914D02*
X161809524Y-108597676D01*
X161809524Y-108597676D02*
X161904762Y-108502438D01*
X161904762Y-108502438D02*
X162047619Y-108454819D01*
X162047619Y-108454819D02*
X162142857Y-108454819D01*
X162142857Y-108454819D02*
X162285714Y-108502438D01*
X162285714Y-108502438D02*
X162333333Y-108550057D01*
X163285714Y-109454819D02*
X162714286Y-109454819D01*
X163000000Y-109454819D02*
X163000000Y-108454819D01*
X163000000Y-108454819D02*
X162904762Y-108597676D01*
X162904762Y-108597676D02*
X162809524Y-108692914D01*
X162809524Y-108692914D02*
X162714286Y-108740533D01*
X155238095Y-93454819D02*
X155238095Y-94264342D01*
X155238095Y-94264342D02*
X155285714Y-94359580D01*
X155285714Y-94359580D02*
X155333333Y-94407200D01*
X155333333Y-94407200D02*
X155428571Y-94454819D01*
X155428571Y-94454819D02*
X155619047Y-94454819D01*
X155619047Y-94454819D02*
X155714285Y-94407200D01*
X155714285Y-94407200D02*
X155761904Y-94359580D01*
X155761904Y-94359580D02*
X155809523Y-94264342D01*
X155809523Y-94264342D02*
X155809523Y-93454819D01*
X156809523Y-94454819D02*
X156238095Y-94454819D01*
X156523809Y-94454819D02*
X156523809Y-93454819D01*
X156523809Y-93454819D02*
X156428571Y-93597676D01*
X156428571Y-93597676D02*
X156333333Y-93692914D01*
X156333333Y-93692914D02*
X156238095Y-93740533D01*
X123166666Y-95799819D02*
X123166666Y-96514104D01*
X123166666Y-96514104D02*
X123119047Y-96656961D01*
X123119047Y-96656961D02*
X123023809Y-96752200D01*
X123023809Y-96752200D02*
X122880952Y-96799819D01*
X122880952Y-96799819D02*
X122785714Y-96799819D01*
X124166666Y-96799819D02*
X123595238Y-96799819D01*
X123880952Y-96799819D02*
X123880952Y-95799819D01*
X123880952Y-95799819D02*
X123785714Y-95942676D01*
X123785714Y-95942676D02*
X123690476Y-96037914D01*
X123690476Y-96037914D02*
X123595238Y-96085533D01*
X151301905Y-95660819D02*
X151301905Y-94660819D01*
X151301905Y-94660819D02*
X151540000Y-94660819D01*
X151540000Y-94660819D02*
X151682857Y-94708438D01*
X151682857Y-94708438D02*
X151778095Y-94803676D01*
X151778095Y-94803676D02*
X151825714Y-94898914D01*
X151825714Y-94898914D02*
X151873333Y-95089390D01*
X151873333Y-95089390D02*
X151873333Y-95232247D01*
X151873333Y-95232247D02*
X151825714Y-95422723D01*
X151825714Y-95422723D02*
X151778095Y-95517961D01*
X151778095Y-95517961D02*
X151682857Y-95613200D01*
X151682857Y-95613200D02*
X151540000Y-95660819D01*
X151540000Y-95660819D02*
X151301905Y-95660819D01*
X152825714Y-95660819D02*
X152254286Y-95660819D01*
X152540000Y-95660819D02*
X152540000Y-94660819D01*
X152540000Y-94660819D02*
X152444762Y-94803676D01*
X152444762Y-94803676D02*
X152349524Y-94898914D01*
X152349524Y-94898914D02*
X152254286Y-94946533D01*
X172293333Y-97954819D02*
X171960000Y-97478628D01*
X171721905Y-97954819D02*
X171721905Y-96954819D01*
X171721905Y-96954819D02*
X172102857Y-96954819D01*
X172102857Y-96954819D02*
X172198095Y-97002438D01*
X172198095Y-97002438D02*
X172245714Y-97050057D01*
X172245714Y-97050057D02*
X172293333Y-97145295D01*
X172293333Y-97145295D02*
X172293333Y-97288152D01*
X172293333Y-97288152D02*
X172245714Y-97383390D01*
X172245714Y-97383390D02*
X172198095Y-97431009D01*
X172198095Y-97431009D02*
X172102857Y-97478628D01*
X172102857Y-97478628D02*
X171721905Y-97478628D01*
X173245714Y-97954819D02*
X172674286Y-97954819D01*
X172960000Y-97954819D02*
X172960000Y-96954819D01*
X172960000Y-96954819D02*
X172864762Y-97097676D01*
X172864762Y-97097676D02*
X172769524Y-97192914D01*
X172769524Y-97192914D02*
X172674286Y-97240533D01*
X135238095Y-91454819D02*
X135809523Y-91454819D01*
X135523809Y-92454819D02*
X135523809Y-91454819D01*
X136666666Y-92454819D02*
X136095238Y-92454819D01*
X136380952Y-92454819D02*
X136380952Y-91454819D01*
X136380952Y-91454819D02*
X136285714Y-91597676D01*
X136285714Y-91597676D02*
X136190476Y-91692914D01*
X136190476Y-91692914D02*
X136095238Y-91740533D01*
X131119047Y-93550057D02*
X131166666Y-93502438D01*
X131166666Y-93502438D02*
X131261904Y-93454819D01*
X131261904Y-93454819D02*
X131499999Y-93454819D01*
X131499999Y-93454819D02*
X131595237Y-93502438D01*
X131595237Y-93502438D02*
X131642856Y-93550057D01*
X131642856Y-93550057D02*
X131690475Y-93645295D01*
X131690475Y-93645295D02*
X131690475Y-93740533D01*
X131690475Y-93740533D02*
X131642856Y-93883390D01*
X131642856Y-93883390D02*
X131071428Y-94454819D01*
X131071428Y-94454819D02*
X131690475Y-94454819D01*
X132023809Y-93454819D02*
X132642856Y-93454819D01*
X132642856Y-93454819D02*
X132309523Y-93835771D01*
X132309523Y-93835771D02*
X132452380Y-93835771D01*
X132452380Y-93835771D02*
X132547618Y-93883390D01*
X132547618Y-93883390D02*
X132595237Y-93931009D01*
X132595237Y-93931009D02*
X132642856Y-94026247D01*
X132642856Y-94026247D02*
X132642856Y-94264342D01*
X132642856Y-94264342D02*
X132595237Y-94359580D01*
X132595237Y-94359580D02*
X132547618Y-94407200D01*
X132547618Y-94407200D02*
X132452380Y-94454819D01*
X132452380Y-94454819D02*
X132166666Y-94454819D01*
X132166666Y-94454819D02*
X132071428Y-94407200D01*
X132071428Y-94407200D02*
X132023809Y-94359580D01*
X133261904Y-93454819D02*
X133357142Y-93454819D01*
X133357142Y-93454819D02*
X133452380Y-93502438D01*
X133452380Y-93502438D02*
X133499999Y-93550057D01*
X133499999Y-93550057D02*
X133547618Y-93645295D01*
X133547618Y-93645295D02*
X133595237Y-93835771D01*
X133595237Y-93835771D02*
X133595237Y-94073866D01*
X133595237Y-94073866D02*
X133547618Y-94264342D01*
X133547618Y-94264342D02*
X133499999Y-94359580D01*
X133499999Y-94359580D02*
X133452380Y-94407200D01*
X133452380Y-94407200D02*
X133357142Y-94454819D01*
X133357142Y-94454819D02*
X133261904Y-94454819D01*
X133261904Y-94454819D02*
X133166666Y-94407200D01*
X133166666Y-94407200D02*
X133119047Y-94359580D01*
X133119047Y-94359580D02*
X133071428Y-94264342D01*
X133071428Y-94264342D02*
X133023809Y-94073866D01*
X133023809Y-94073866D02*
X133023809Y-93835771D01*
X133023809Y-93835771D02*
X133071428Y-93645295D01*
X133071428Y-93645295D02*
X133119047Y-93550057D01*
X133119047Y-93550057D02*
X133166666Y-93502438D01*
X133166666Y-93502438D02*
X133261904Y-93454819D01*
X133880952Y-93454819D02*
X134214285Y-94454819D01*
X134214285Y-94454819D02*
X134547618Y-93454819D01*
X135595237Y-93407200D02*
X134738095Y-94692914D01*
X136452380Y-94454819D02*
X135880952Y-94454819D01*
X136166666Y-94454819D02*
X136166666Y-93454819D01*
X136166666Y-93454819D02*
X136071428Y-93597676D01*
X136071428Y-93597676D02*
X135976190Y-93692914D01*
X135976190Y-93692914D02*
X135880952Y-93740533D01*
X136833333Y-93550057D02*
X136880952Y-93502438D01*
X136880952Y-93502438D02*
X136976190Y-93454819D01*
X136976190Y-93454819D02*
X137214285Y-93454819D01*
X137214285Y-93454819D02*
X137309523Y-93502438D01*
X137309523Y-93502438D02*
X137357142Y-93550057D01*
X137357142Y-93550057D02*
X137404761Y-93645295D01*
X137404761Y-93645295D02*
X137404761Y-93740533D01*
X137404761Y-93740533D02*
X137357142Y-93883390D01*
X137357142Y-93883390D02*
X136785714Y-94454819D01*
X136785714Y-94454819D02*
X137404761Y-94454819D01*
X137690476Y-93454819D02*
X138023809Y-94454819D01*
X138023809Y-94454819D02*
X138357142Y-93454819D01*
X139404762Y-94169104D02*
X139880952Y-94169104D01*
X139309524Y-94454819D02*
X139642857Y-93454819D01*
X139642857Y-93454819D02*
X139976190Y-94454819D01*
X140880952Y-94359580D02*
X140833333Y-94407200D01*
X140833333Y-94407200D02*
X140690476Y-94454819D01*
X140690476Y-94454819D02*
X140595238Y-94454819D01*
X140595238Y-94454819D02*
X140452381Y-94407200D01*
X140452381Y-94407200D02*
X140357143Y-94311961D01*
X140357143Y-94311961D02*
X140309524Y-94216723D01*
X140309524Y-94216723D02*
X140261905Y-94026247D01*
X140261905Y-94026247D02*
X140261905Y-93883390D01*
X140261905Y-93883390D02*
X140309524Y-93692914D01*
X140309524Y-93692914D02*
X140357143Y-93597676D01*
X140357143Y-93597676D02*
X140452381Y-93502438D01*
X140452381Y-93502438D02*
X140595238Y-93454819D01*
X140595238Y-93454819D02*
X140690476Y-93454819D01*
X140690476Y-93454819D02*
X140833333Y-93502438D01*
X140833333Y-93502438D02*
X140880952Y-93550057D01*
X172333333Y-109359580D02*
X172285714Y-109407200D01*
X172285714Y-109407200D02*
X172142857Y-109454819D01*
X172142857Y-109454819D02*
X172047619Y-109454819D01*
X172047619Y-109454819D02*
X171904762Y-109407200D01*
X171904762Y-109407200D02*
X171809524Y-109311961D01*
X171809524Y-109311961D02*
X171761905Y-109216723D01*
X171761905Y-109216723D02*
X171714286Y-109026247D01*
X171714286Y-109026247D02*
X171714286Y-108883390D01*
X171714286Y-108883390D02*
X171761905Y-108692914D01*
X171761905Y-108692914D02*
X171809524Y-108597676D01*
X171809524Y-108597676D02*
X171904762Y-108502438D01*
X171904762Y-108502438D02*
X172047619Y-108454819D01*
X172047619Y-108454819D02*
X172142857Y-108454819D01*
X172142857Y-108454819D02*
X172285714Y-108502438D01*
X172285714Y-108502438D02*
X172333333Y-108550057D01*
X172714286Y-108550057D02*
X172761905Y-108502438D01*
X172761905Y-108502438D02*
X172857143Y-108454819D01*
X172857143Y-108454819D02*
X173095238Y-108454819D01*
X173095238Y-108454819D02*
X173190476Y-108502438D01*
X173190476Y-108502438D02*
X173238095Y-108550057D01*
X173238095Y-108550057D02*
X173285714Y-108645295D01*
X173285714Y-108645295D02*
X173285714Y-108740533D01*
X173285714Y-108740533D02*
X173238095Y-108883390D01*
X173238095Y-108883390D02*
X172666667Y-109454819D01*
X172666667Y-109454819D02*
X173285714Y-109454819D01*
D11*
%TO.C,D2*%
X174171437Y-95080000D02*
G75*
G02*
X170940000Y-95235516I-1671437J1080000D01*
G01*
X173540961Y-95080000D02*
G75*
G02*
X171459039Y-95080000I-1040961J1080000D01*
G01*
X171459039Y-92920000D02*
G75*
G02*
X173540961Y-92920000I1040961J-1080000D01*
G01*
X170940000Y-92764484D02*
G75*
G02*
X174171437Y-92920000I1560000J-1235516D01*
G01*
X170940000Y-95080000D02*
X170940000Y-95236000D01*
X170940000Y-92764000D02*
X170940000Y-92920000D01*
%TO.C,J2*%
X180380000Y-99995000D02*
X180380000Y-102645000D01*
X177620000Y-102645000D02*
X180380000Y-102645000D01*
X177620000Y-99995000D02*
X180380000Y-99995000D01*
X177620000Y-99995000D02*
X177620000Y-102645000D01*
X177620000Y-98725000D02*
X177620000Y-97345000D01*
X177620000Y-97345000D02*
X179000000Y-97345000D01*
%TO.C,C1*%
X167620000Y-103000000D02*
G75*
G02*
X157380000Y-103000000I-5120000J0D01*
G01*
X157380000Y-103000000D02*
G75*
G02*
X167620000Y-103000000I5120000J0D01*
G01*
%TO.C,U1*%
X167570000Y-96360000D02*
X157350000Y-96360000D01*
X167570000Y-91740000D02*
X167570000Y-96360000D01*
X164310000Y-91740000D02*
X164310000Y-93120000D01*
X160610000Y-91740000D02*
X160610000Y-93120000D01*
X157350000Y-96360000D02*
X157350000Y-91740000D01*
X157350000Y-93120000D02*
X167570000Y-93120000D01*
X157350000Y-91740000D02*
X167570000Y-91740000D01*
%TO.C,J1*%
X124880000Y-99995000D02*
X124880000Y-102645000D01*
X122120000Y-102645000D02*
X124880000Y-102645000D01*
X122120000Y-99995000D02*
X124880000Y-99995000D01*
X122120000Y-99995000D02*
X122120000Y-102645000D01*
X122120000Y-98725000D02*
X122120000Y-97345000D01*
X122120000Y-97345000D02*
X123500000Y-97345000D01*
%TO.C,D1*%
X155850000Y-97950000D02*
G75*
G02*
X155747584Y-103198261I-3850000J-2550000D01*
G01*
X154750000Y-104200000D02*
G75*
G02*
X149508533Y-104378800I-2750000J3700000D01*
G01*
X149400000Y-96700000D02*
G75*
G02*
X154754731Y-96810629I2600000J-3800000D01*
G01*
X148250000Y-103200000D02*
G75*
G02*
X148170569Y-97913891I3750000J2700000D01*
G01*
X147545513Y-97816243D02*
G75*
G02*
X149150000Y-96150000I4454487J-2683757D01*
G01*
%TO.C,R1*%
X170540000Y-100420000D02*
X174380000Y-100420000D01*
X170540000Y-98580000D02*
X174380000Y-98580000D01*
%TO.C,T1*%
D12*
X126000000Y-92850000D02*
X146000000Y-92850000D01*
X146000000Y-107850000D01*
X126000000Y-107850000D01*
X126000000Y-92850000D01*
D11*
%TO.C,C2*%
X175837621Y-104500000D02*
G75*
G02*
X169297621Y-104500000I-3270000J0D01*
G01*
X169297621Y-104500000D02*
G75*
G02*
X175837621Y-104500000I3270000J0D01*
G01*
X175807621Y-104098000D02*
X175807621Y-104902000D01*
X175767621Y-103867000D02*
X175767621Y-105133000D01*
X175727621Y-103699000D02*
X175727621Y-105301000D01*
X175687621Y-103561000D02*
X175687621Y-105439000D01*
X175647621Y-103442000D02*
X175647621Y-105558000D01*
X175607621Y-103335000D02*
X175607621Y-105665000D01*
X175567621Y-103239000D02*
X175567621Y-105761000D01*
X175527621Y-103150000D02*
X175527621Y-105850000D01*
X175487621Y-103068000D02*
X175487621Y-105932000D01*
X175447621Y-102991000D02*
X175447621Y-106009000D01*
X175407621Y-102919000D02*
X175407621Y-106081000D01*
X175367621Y-102851000D02*
X175367621Y-106149000D01*
X175327621Y-102786000D02*
X175327621Y-106214000D01*
X175287621Y-102725000D02*
X175287621Y-106275000D01*
X175247621Y-102666000D02*
X175247621Y-106334000D01*
X175207621Y-102610000D02*
X175207621Y-106390000D01*
X175167621Y-102557000D02*
X175167621Y-106443000D01*
X175127621Y-102505000D02*
X175127621Y-106495000D01*
X175087621Y-102456000D02*
X175087621Y-106544000D01*
X175047621Y-102409000D02*
X175047621Y-106591000D01*
X175007621Y-102363000D02*
X175007621Y-106637000D01*
X174967621Y-102319000D02*
X174967621Y-106681000D01*
X174927621Y-102277000D02*
X174927621Y-106723000D01*
X174887621Y-102236000D02*
X174887621Y-106764000D01*
X174847621Y-105540000D02*
X174847621Y-106804000D01*
X174847621Y-102196000D02*
X174847621Y-103460000D01*
X174807621Y-105540000D02*
X174807621Y-106842000D01*
X174807621Y-102158000D02*
X174807621Y-103460000D01*
X174767621Y-105540000D02*
X174767621Y-106879000D01*
X174767621Y-102121000D02*
X174767621Y-103460000D01*
X174727621Y-105540000D02*
X174727621Y-106915000D01*
X174727621Y-102085000D02*
X174727621Y-103460000D01*
X174687621Y-105540000D02*
X174687621Y-106950000D01*
X174687621Y-102050000D02*
X174687621Y-103460000D01*
X174647621Y-105540000D02*
X174647621Y-106983000D01*
X174647621Y-102017000D02*
X174647621Y-103460000D01*
X174607621Y-105540000D02*
X174607621Y-107016000D01*
X174607621Y-101984000D02*
X174607621Y-103460000D01*
X174567621Y-105540000D02*
X174567621Y-107047000D01*
X174567621Y-101953000D02*
X174567621Y-103460000D01*
X174527621Y-105540000D02*
X174527621Y-107077000D01*
X174527621Y-101923000D02*
X174527621Y-103460000D01*
X174487621Y-105540000D02*
X174487621Y-107107000D01*
X174487621Y-101893000D02*
X174487621Y-103460000D01*
X174447621Y-105540000D02*
X174447621Y-107136000D01*
X174447621Y-101864000D02*
X174447621Y-103460000D01*
X174407621Y-105540000D02*
X174407621Y-107163000D01*
X174407621Y-101837000D02*
X174407621Y-103460000D01*
X174367621Y-105540000D02*
X174367621Y-107190000D01*
X174367621Y-101810000D02*
X174367621Y-103460000D01*
X174327621Y-105540000D02*
X174327621Y-107216000D01*
X174327621Y-101784000D02*
X174327621Y-103460000D01*
X174287621Y-105540000D02*
X174287621Y-107241000D01*
X174287621Y-101759000D02*
X174287621Y-103460000D01*
X174247621Y-105540000D02*
X174247621Y-107265000D01*
X174247621Y-101735000D02*
X174247621Y-103460000D01*
X174207621Y-105540000D02*
X174207621Y-107289000D01*
X174207621Y-101711000D02*
X174207621Y-103460000D01*
X174167621Y-105540000D02*
X174167621Y-107312000D01*
X174167621Y-101688000D02*
X174167621Y-103460000D01*
X174127621Y-105540000D02*
X174127621Y-107334000D01*
X174127621Y-101666000D02*
X174127621Y-103460000D01*
X174087621Y-105540000D02*
X174087621Y-107355000D01*
X174087621Y-101645000D02*
X174087621Y-103460000D01*
X174047621Y-105540000D02*
X174047621Y-107376000D01*
X174047621Y-101624000D02*
X174047621Y-103460000D01*
X174007621Y-105540000D02*
X174007621Y-107396000D01*
X174007621Y-101604000D02*
X174007621Y-103460000D01*
X173967621Y-105540000D02*
X173967621Y-107415000D01*
X173967621Y-101585000D02*
X173967621Y-103460000D01*
X173927621Y-105540000D02*
X173927621Y-107434000D01*
X173927621Y-101566000D02*
X173927621Y-103460000D01*
X173887621Y-105540000D02*
X173887621Y-107452000D01*
X173887621Y-101548000D02*
X173887621Y-103460000D01*
X173847621Y-105540000D02*
X173847621Y-107469000D01*
X173847621Y-101531000D02*
X173847621Y-103460000D01*
X173807621Y-105540000D02*
X173807621Y-107486000D01*
X173807621Y-101514000D02*
X173807621Y-103460000D01*
X173767621Y-105540000D02*
X173767621Y-107502000D01*
X173767621Y-101498000D02*
X173767621Y-103460000D01*
X173727621Y-105540000D02*
X173727621Y-107517000D01*
X173727621Y-101483000D02*
X173727621Y-103460000D01*
X173687621Y-105540000D02*
X173687621Y-107532000D01*
X173687621Y-101468000D02*
X173687621Y-103460000D01*
X173647621Y-105540000D02*
X173647621Y-107547000D01*
X173647621Y-101453000D02*
X173647621Y-103460000D01*
X173607621Y-105540000D02*
X173607621Y-107560000D01*
X173607621Y-101440000D02*
X173607621Y-103460000D01*
X173567621Y-105540000D02*
X173567621Y-107573000D01*
X173567621Y-101427000D02*
X173567621Y-103460000D01*
X173527621Y-105540000D02*
X173527621Y-107586000D01*
X173527621Y-101414000D02*
X173527621Y-103460000D01*
X173487621Y-105540000D02*
X173487621Y-107598000D01*
X173487621Y-101402000D02*
X173487621Y-103460000D01*
X173447621Y-105540000D02*
X173447621Y-107609000D01*
X173447621Y-101391000D02*
X173447621Y-103460000D01*
X173407621Y-105540000D02*
X173407621Y-107620000D01*
X173407621Y-101380000D02*
X173407621Y-103460000D01*
X173367621Y-105540000D02*
X173367621Y-107631000D01*
X173367621Y-101369000D02*
X173367621Y-103460000D01*
X173327621Y-105540000D02*
X173327621Y-107640000D01*
X173327621Y-101360000D02*
X173327621Y-103460000D01*
X173287621Y-105540000D02*
X173287621Y-107650000D01*
X173287621Y-101350000D02*
X173287621Y-103460000D01*
X173247621Y-105540000D02*
X173247621Y-107659000D01*
X173247621Y-101341000D02*
X173247621Y-103460000D01*
X173207621Y-105540000D02*
X173207621Y-107667000D01*
X173207621Y-101333000D02*
X173207621Y-103460000D01*
X173167621Y-105540000D02*
X173167621Y-107674000D01*
X173167621Y-101326000D02*
X173167621Y-103460000D01*
X173127621Y-105540000D02*
X173127621Y-107682000D01*
X173127621Y-101318000D02*
X173127621Y-103460000D01*
X173087621Y-105540000D02*
X173087621Y-107688000D01*
X173087621Y-101312000D02*
X173087621Y-103460000D01*
X173047621Y-105540000D02*
X173047621Y-107695000D01*
X173047621Y-101305000D02*
X173047621Y-103460000D01*
X173007621Y-105540000D02*
X173007621Y-107700000D01*
X173007621Y-101300000D02*
X173007621Y-103460000D01*
X172967621Y-105540000D02*
X172967621Y-107705000D01*
X172967621Y-101295000D02*
X172967621Y-103460000D01*
X172927621Y-105540000D02*
X172927621Y-107710000D01*
X172927621Y-101290000D02*
X172927621Y-103460000D01*
X172887621Y-105540000D02*
X172887621Y-107714000D01*
X172887621Y-101286000D02*
X172887621Y-103460000D01*
X172847621Y-105540000D02*
X172847621Y-107718000D01*
X172847621Y-101282000D02*
X172847621Y-103460000D01*
X172807621Y-105540000D02*
X172807621Y-107721000D01*
X172807621Y-101279000D02*
X172807621Y-103460000D01*
X172767621Y-101276000D02*
X172767621Y-107724000D01*
X172727621Y-101274000D02*
X172727621Y-107726000D01*
X172687621Y-101272000D02*
X172687621Y-107728000D01*
X172647621Y-101271000D02*
X172647621Y-107729000D01*
X172607621Y-101270000D02*
X172607621Y-107730000D01*
X172567621Y-101270000D02*
X172567621Y-107730000D01*
X169382380Y-102346000D02*
X169382380Y-102976000D01*
X169067380Y-102661000D02*
X169697380Y-102661000D01*
%TD*%
M02*
